<?xml version="1.0" encoding="UTF-8"?>
<svg xmlns="http://www.w3.org/2000/svg" xmlns:xlink="http://www.w3.org/1999/xlink" width="15pt" height="15pt" viewBox="0 0 15 15" version="1.1">
<g id="surface1">
<path style=" stroke:none;fill-rule:nonzero;fill:rgb(0%,0%,0%);fill-opacity:1;" d="M 0.773438 14.992188 C 0.578125 14.992188 0.378906 14.914062 0.230469 14.765625 C -0.0703125 14.464844 -0.0703125 13.976562 0.230469 13.671875 L 13.675781 0.226562 C 13.976562 -0.0742188 14.464844 -0.0742188 14.769531 0.226562 C 15.070312 0.527344 15.070312 1.015625 14.769531 1.316406 L 1.320312 14.765625 C 1.167969 14.914062 0.972656 14.992188 0.773438 14.992188 Z M 0.773438 14.992188 "/>
<path style=" stroke:none;fill-rule:nonzero;fill:rgb(0%,0%,0%);fill-opacity:1;" d="M 14.222656 14.992188 C 14.027344 14.992188 13.828125 14.914062 13.679688 14.765625 L 0.230469 1.316406 C -0.0703125 1.015625 -0.0703125 0.527344 0.230469 0.226562 C 0.53125 -0.0742188 1.019531 -0.0742188 1.320312 0.226562 L 14.769531 13.671875 C 15.070312 13.976562 15.070312 14.464844 14.769531 14.765625 C 14.617188 14.914062 14.417969 14.992188 14.222656 14.992188 Z M 14.222656 14.992188 "/>
</g>
</svg>
